<svg xmlns="http://www.w3.org/2000/svg" viewBox="0 0 35 35">
  <defs>
    <style>
      .cls-1 {
        fill: #1f2555;
      }

      .cls-2 {
        fill: #00a5a6;
      }

      .cls-3 {
        fill: #fff;
      }
    </style>
  </defs>
  <g id="Group_5737" data-name="Group 5737" transform="translate(-622 -213)">
    <circle id="Ellipse_11" data-name="Ellipse 11" class="cls-1" cx="17.5" cy="17.5" r="17.5" transform="translate(622 213)"/>
    <g id="Group_5730" data-name="Group 5730" transform="translate(631 226.934)">
      <g id="Group_5729" data-name="Group 5729" transform="translate(0 0.066)">
        <path id="Path_5614" data-name="Path 5614" class="cls-2" d="M51.239,40.085c-2.035-.333-3.594-.024-4.386.871A2.131,2.131,0,0,0,46.418,43a23.964,23.964,0,0,1,5.835-1.465,6.164,6.164,0,0,1-.4-1.338C51.627,40.148,51.413,40.108,51.239,40.085Z" transform="translate(-42.657 -36.796)"/>
        <path id="Path_5615" data-name="Path 5615" class="cls-2" d="M123.6,45.88a9.081,9.081,0,0,1,3.959.451,14,14,0,0,0-4-1.631A6.115,6.115,0,0,0,123.6,45.88Z" transform="translate(-113.771 -41.166)"/>
        <path id="Path_5616" data-name="Path 5616" class="cls-3" d="M130.669,2.523a.876.876,0,0,1-.269-.728l-.8-.625a.153.153,0,0,1-.016-.261l.285-.285A3.7,3.7,0,0,0,128.6.148c-3.721-.538-4.568,1.694-4.7,3.294a14.1,14.1,0,0,1,5.407,2.581,4.567,4.567,0,0,0-.348-1.267,3.034,3.034,0,0,1-1.583-1.005c-.079-.135.032-.166.087-.1s.554.815,2.375.657a4.513,4.513,0,0,1,1.4.562.473.473,0,0,0,.554-.087c.079-.119.261-.443.261-.443a.358.358,0,0,0-.04-.372C131.9,3.837,130.923,2.824,130.669,2.523Zm-.6-.143-.412-.206.024-.024a.425.425,0,0,1,.467-.1l.024.008Z" transform="translate(-114.091 -0.066)"/>
        <path id="Path_5617" data-name="Path 5617" class="cls-3" d="M4.077,5.436C4.909,4.5,6.516,4.17,8.606,4.51c.166.024.348.063.554.1a5.428,5.428,0,0,1,.1-2.082c.127-.515-.15-1.148-1.124-1.021C5.154,1.961,1.623,5.4,0,9.292A26.9,26.9,0,0,1,3.618,7.637,2.271,2.271,0,0,1,4.077,5.436Z" transform="translate(0 -1.38)"/>
      </g>
    </g>
  </g>
</svg>
